<svg xmlns="http://www.w3.org/2000/svg" xmlns:xlink="http://www.w3.org/1999/xlink" width="500" zoomAndPan="magnify" viewBox="0 0 375 374.999991" height="500" preserveAspectRatio="xMidYMid meet" version="1.0"><defs><clipPath id="2dd75137ce"><path d="M 112.5 112.5 L 207 112.5 L 207 262.5 L 112.5 262.5 Z M 112.5 112.5 " clip-rule="nonzero"/></clipPath><clipPath id="b74c3206a6"><path d="M 195 152 L 262.5 152 L 262.5 203 L 195 203 Z M 195 152 " clip-rule="nonzero"/></clipPath></defs><rect x="-37.5" width="450" fill="#ffffff" y="-37.499999" height="449.999989" fill-opacity="1"/><rect x="-37.5" width="450" fill="#ffffff" y="-37.499999" height="449.999989" fill-opacity="1"/><g clip-path="url(#2dd75137ce)"><path fill="#007bff" d="M 196.726562 143.421875 L 196.726562 121.71875 L 145.632812 121.71875 L 177.460938 132.5 C 179.382812 133.15625 180.648438 134.9375 180.648438 136.953125 L 180.648438 233.046875 L 196.726562 233.046875 L 196.726562 211.34375 C 196.726562 208.71875 198.789062 206.65625 201.414062 206.65625 C 203.992188 206.65625 206.101562 208.71875 206.101562 211.34375 L 206.101562 237.734375 C 206.101562 240.3125 203.992188 242.421875 201.414062 242.421875 L 180.648438 242.421875 L 180.648438 257.65625 C 180.648438 259.15625 179.945312 260.609375 178.726562 261.453125 C 177.882812 262.0625 176.945312 262.34375 175.960938 262.34375 C 175.492188 262.34375 174.976562 262.25 174.460938 262.109375 L 115.679688 242.1875 C 115.632812 242.140625 115.585938 242.09375 115.492188 242.09375 C 115.351562 242 115.210938 241.90625 115.070312 241.859375 C 114.695312 241.671875 114.414062 241.4375 114.085938 241.203125 C 113.945312 241.0625 113.851562 240.921875 113.710938 240.78125 C 113.476562 240.5 113.242188 240.21875 113.101562 239.84375 C 113.007812 239.703125 112.914062 239.5625 112.820312 239.375 C 112.632812 238.859375 112.492188 238.296875 112.492188 237.734375 L 112.492188 117.03125 C 112.492188 116.46875 112.632812 115.90625 112.820312 115.390625 C 112.867188 115.296875 112.914062 115.203125 112.960938 115.109375 C 113.148438 114.640625 113.429688 114.21875 113.804688 113.796875 C 113.898438 113.75 113.945312 113.65625 114.039062 113.609375 C 114.179688 113.46875 114.320312 113.328125 114.460938 113.234375 C 114.554688 113.140625 114.742188 113.140625 114.835938 113.09375 C 115.210938 112.859375 115.632812 112.671875 116.101562 112.578125 C 116.335938 112.484375 116.570312 112.4375 116.804688 112.4375 C 116.945312 112.390625 117.039062 112.34375 117.179688 112.34375 L 201.414062 112.34375 C 203.992188 112.34375 206.101562 114.453125 206.101562 117.03125 L 206.101562 143.421875 C 206.101562 146.046875 203.992188 148.109375 201.414062 148.109375 C 198.789062 148.109375 196.726562 146.046875 196.726562 143.421875 Z M 196.726562 143.421875 " fill-opacity="1" fill-rule="nonzero"/></g><g clip-path="url(#b74c3206a6)"><path fill="#007bff" d="M 262.117188 179.246094 C 262.121094 179.230469 262.132812 179.226562 262.140625 179.210938 C 262.378906 178.648438 262.515625 178.03125 262.515625 177.378906 C 262.515625 176.726562 262.378906 176.109375 262.140625 175.546875 C 262.132812 175.53125 262.121094 175.527344 262.117188 175.515625 C 261.871094 174.957031 261.53125 174.460938 261.101562 174.039062 C 261.09375 174.027344 261.089844 174.015625 261.078125 174.003906 L 239.734375 153.414062 C 237.871094 151.621094 234.910156 151.667969 233.105469 153.53125 C 231.304688 155.390625 231.359375 158.363281 233.222656 160.15625 L 246.210938 172.6875 L 200.628906 172.6875 C 198.039062 172.6875 195.941406 174.789062 195.941406 177.375 C 195.941406 179.960938 198.039062 182.0625 200.628906 182.0625 L 246.210938 182.0625 L 233.222656 194.59375 C 231.359375 196.386719 231.304688 199.359375 233.105469 201.21875 C 234.023438 202.175781 235.25 202.65625 236.480469 202.65625 C 237.652344 202.65625 238.824219 202.21875 239.734375 201.34375 L 261.078125 180.75 C 261.089844 180.742188 261.09375 180.726562 261.101562 180.71875 C 261.523438 180.300781 261.871094 179.804688 262.117188 179.246094 Z M 262.117188 179.246094 " fill-opacity="1" fill-rule="nonzero"/></g></svg>