<svg xmlns="http://www.w3.org/2000/svg" xmlns:xlink="http://www.w3.org/1999/xlink" width="500" zoomAndPan="magnify" viewBox="0 0 375 374.999991" height="500" preserveAspectRatio="xMidYMid meet" version="1.0"><defs><clipPath id="6764afd601"><path d="M 3.339844 3.339844 L 371.589844 3.339844 L 371.589844 371.589844 L 3.339844 371.589844 Z M 3.339844 3.339844 " clip-rule="nonzero"/></clipPath></defs><rect x="-37.5" width="450" fill="#ffffff" y="-37.499999" height="449.999989" fill-opacity="1"/><rect x="-37.5" width="450" fill="#ffffff" y="-37.499999" height="449.999989" fill-opacity="1"/><g clip-path="url(#6764afd601)"><path fill="#007bff" d="M 317.71875 57.277344 C 282.9375 22.496094 236.691406 3.339844 187.5 3.339844 C 138.304688 3.339844 92.058594 22.496094 57.277344 57.277344 C 22.496094 92.058594 3.339844 138.308594 3.339844 187.5 C 3.339844 236.6875 22.496094 282.9375 57.277344 317.71875 C 92.058594 352.503906 138.304688 371.660156 187.5 371.660156 C 236.691406 371.660156 282.9375 352.503906 317.71875 317.71875 C 352.503906 282.9375 371.660156 236.691406 371.660156 187.5 C 371.660156 138.304688 352.503906 92.058594 317.71875 57.277344 Z M 317.71875 57.277344 " fill-opacity="1" fill-rule="nonzero"/></g><path fill="#ffffff" d="M 231.480469 100.027344 C 232.921875 101.46875 234.289062 102.976562 235.578125 104.550781 C 236.871094 106.125 238.082031 107.761719 239.214844 109.453125 C 240.347656 111.148438 241.394531 112.894531 242.355469 114.691406 C 243.3125 116.484375 244.183594 118.324219 244.964844 120.207031 C 245.742188 122.089844 246.429688 124.003906 247.019531 125.953125 C 247.609375 127.902344 248.105469 129.878906 248.503906 131.875 C 248.898438 133.875 249.199219 135.886719 249.398438 137.914062 C 249.597656 139.941406 249.699219 141.972656 249.699219 144.007812 C 249.699219 146.046875 249.597656 148.078125 249.398438 150.105469 C 249.199219 152.132812 248.898438 154.144531 248.503906 156.144531 C 248.105469 158.140625 247.609375 160.113281 247.019531 162.0625 C 246.429688 164.015625 245.742188 165.929688 244.964844 167.8125 C 244.183594 169.691406 243.3125 171.53125 242.355469 173.328125 C 241.394531 175.125 240.347656 176.871094 239.214844 178.5625 C 238.082031 180.257812 236.871094 181.890625 235.578125 183.46875 C 234.289062 185.042969 232.921875 186.550781 231.480469 187.988281 C 230.039062 189.429688 228.53125 190.796875 226.957031 192.089844 C 225.382812 193.382812 223.75 194.59375 222.054688 195.726562 C 220.363281 196.855469 218.617188 197.902344 216.820312 198.863281 C 215.023438 199.824219 213.183594 200.691406 211.300781 201.472656 C 209.421875 202.25 207.503906 202.9375 205.554688 203.527344 C 203.605469 204.121094 201.632812 204.613281 199.632812 205.011719 C 197.636719 205.410156 195.625 205.707031 193.597656 205.90625 C 191.570312 206.105469 189.539062 206.207031 187.5 206.207031 C 185.464844 206.207031 183.429688 206.105469 181.402344 205.90625 C 179.375 205.707031 177.363281 205.410156 175.367188 205.011719 C 173.367188 204.613281 171.394531 204.121094 169.445312 203.527344 C 167.496094 202.9375 165.582031 202.25 163.699219 201.472656 C 161.816406 200.691406 159.976562 199.824219 158.179688 198.863281 C 156.382812 197.902344 154.640625 196.855469 152.945312 195.726562 C 151.25 194.59375 149.617188 193.382812 148.042969 192.089844 C 146.46875 190.796875 144.960938 189.429688 143.519531 187.988281 C 142.078125 186.550781 140.714844 185.042969 139.421875 183.46875 C 138.128906 181.890625 136.917969 180.257812 135.785156 178.566406 C 134.652344 176.871094 133.605469 175.125 132.648438 173.328125 C 131.6875 171.53125 130.816406 169.691406 130.039062 167.8125 C 129.257812 165.929688 128.574219 164.015625 127.980469 162.0625 C 127.390625 160.113281 126.894531 158.140625 126.496094 156.144531 C 126.101562 154.144531 125.800781 152.132812 125.601562 150.105469 C 125.402344 148.078125 125.304688 146.046875 125.304688 144.007812 C 125.304688 141.972656 125.402344 139.941406 125.601562 137.914062 C 125.800781 135.886719 126.101562 133.875 126.496094 131.875 C 126.894531 129.878906 127.390625 127.902344 127.980469 125.953125 C 128.574219 124.003906 129.257812 122.089844 130.039062 120.207031 C 130.816406 118.324219 131.6875 116.484375 132.648438 114.691406 C 133.605469 112.894531 134.652344 111.148438 135.785156 109.453125 C 136.917969 107.761719 138.128906 106.125 139.421875 104.550781 C 140.714844 102.976562 142.078125 101.46875 143.519531 100.027344 C 144.960938 98.589844 146.46875 97.222656 148.042969 95.929688 C 149.617188 94.636719 151.25 93.425781 152.945312 92.292969 C 154.640625 91.164062 156.382812 90.117188 158.179688 89.15625 C 159.976562 88.195312 161.816406 87.324219 163.699219 86.546875 C 165.582031 85.765625 167.496094 85.082031 169.445312 84.488281 C 171.394531 83.898438 173.367188 83.40625 175.367188 83.007812 C 177.363281 82.609375 179.375 82.3125 181.402344 82.113281 C 183.429688 81.910156 185.464844 81.8125 187.5 81.8125 C 189.539062 81.8125 191.570312 81.910156 193.597656 82.113281 C 195.625 82.3125 197.636719 82.609375 199.632812 83.007812 C 201.632812 83.40625 203.605469 83.898438 205.554688 84.488281 C 207.503906 85.082031 209.421875 85.765625 211.300781 86.546875 C 213.183594 87.324219 215.023438 88.195312 216.820312 89.15625 C 218.617188 90.117188 220.363281 91.164062 222.054688 92.292969 C 223.75 93.425781 225.382812 94.636719 226.957031 95.929688 C 228.53125 97.222656 230.039062 98.589844 231.480469 100.027344 Z M 231.480469 100.027344 " fill-opacity="1" fill-rule="nonzero"/><path fill="#ffffff" d="M 189.296875 233.84375 L 185.703125 233.84375 C 134.882812 233.84375 92.085938 268.15625 79.1875 314.875 C 108.394531 339.75 146.222656 354.785156 187.5 354.785156 C 228.777344 354.785156 266.601562 339.75 295.808594 314.875 C 282.914062 268.160156 240.117188 233.84375 189.292969 233.84375 Z M 189.296875 233.84375 " fill-opacity="1" fill-rule="nonzero"/></svg>